<svg width="181" height="139" viewBox="0 0 181 139" fill="none" xmlns="http://www.w3.org/2000/svg">
<path d="M90.1544 138.626C128.77 138.626 160.074 136.741 160.074 134.414C160.074 132.088 128.77 130.202 90.1544 130.202C51.5386 130.202 20.2344 132.088 20.2344 134.414C20.2344 136.741 51.5386 138.626 90.1544 138.626Z" fill="#F5F5F5"/>
<path d="M93.9083 115.534H47.9044C47.1646 115.524 46.4562 115.225 45.9211 114.697C45.3861 114.17 45.064 113.454 45.0195 112.692L40.894 30.2548C40.8711 29.8881 40.9219 29.5205 41.0432 29.175C41.1644 28.8295 41.3536 28.5136 41.5987 28.247C41.8438 27.9805 42.1396 27.7691 42.4677 27.626C42.7957 27.483 43.1488 27.4114 43.5049 27.4157H89.5088C90.2482 27.4256 90.9567 27.7238 91.4918 28.2504C92.027 28.7771 92.3492 29.4931 92.3937 30.2548L96.512 112.692C96.5348 113.058 96.4842 113.425 96.3634 113.77C96.2426 114.115 96.0542 114.431 95.8099 114.698C95.5656 114.965 95.2707 115.177 94.9436 115.32C94.6164 115.464 94.264 115.537 93.9083 115.534Z" fill="#407BFF"/>
<path opacity="0.8" d="M93.9083 115.534H47.9044C47.1646 115.524 46.4562 115.225 45.9211 114.697C45.3861 114.17 45.064 113.454 45.0195 112.692L40.894 30.2548C40.8711 29.8881 40.9219 29.5205 41.0432 29.175C41.1644 28.8295 41.3536 28.5136 41.5987 28.247C41.8438 27.9805 42.1396 27.7691 42.4677 27.626C42.7957 27.483 43.1488 27.4114 43.5049 27.4157H89.5088C90.2482 27.4256 90.9567 27.7238 91.4918 28.2504C92.027 28.7771 92.3492 29.4931 92.3937 30.2548L96.512 112.692C96.5348 113.058 96.4842 113.425 96.3634 113.77C96.2426 114.115 96.0542 114.431 95.8099 114.698C95.5656 114.965 95.2707 115.177 94.9436 115.32C94.6164 115.464 94.264 115.537 93.9083 115.534Z" fill="white"/>
<path d="M84.9687 24.7292H79.8804V25.1013H84.9687V24.7292Z" fill="#407BFF"/>
<path d="M78.1168 24.7292H76.2524V25.1013H78.1168V24.7292Z" fill="#407BFF"/>
<path d="M95.8881 110.303H51.8928C51.1843 110.296 50.5047 110.012 49.9908 109.509C49.477 109.005 49.167 108.32 49.1232 107.59L45.1853 28.7439C45.1634 28.393 45.212 28.0412 45.3281 27.7106C45.4442 27.38 45.6252 27.0776 45.8599 26.8226C46.0945 26.5676 46.3777 26.3653 46.6916 26.2285C47.0056 26.0917 47.3436 26.0233 47.6844 26.0277H91.6796C92.3881 26.0357 93.0673 26.3204 93.5805 26.8244C94.0937 27.3284 94.4028 28.0142 94.4456 28.7439L98.3835 107.59C98.4054 107.941 98.3569 108.292 98.241 108.622C98.1251 108.952 97.9443 109.254 97.71 109.509C97.4757 109.763 97.1929 109.965 96.8794 110.102C96.5659 110.239 96.2284 110.307 95.8881 110.303Z" fill="#407BFF"/>
<path d="M95.8882 108.49H51.8929C51.6349 108.481 51.3892 108.375 51.2024 108.191C51.0155 108.007 50.9007 107.759 50.8796 107.493L46.9381 28.6508C46.9291 28.5459 46.9419 28.4403 46.9755 28.3409C47.009 28.2415 47.0626 28.1505 47.1328 28.0741C47.2031 27.9978 47.2884 27.9378 47.3829 27.898C47.4774 27.8582 47.579 27.8396 47.6809 27.8434H91.6762C91.9336 27.8534 92.1785 27.9604 92.3646 28.1442C92.5506 28.3279 92.665 28.5757 92.686 28.8406L96.6455 107.683C96.6542 107.788 96.6414 107.893 96.6079 107.992C96.5744 108.091 96.521 108.181 96.4512 108.258C96.3814 108.334 96.2968 108.394 96.2029 108.434C96.1089 108.474 96.0079 108.493 95.9063 108.49H95.8882ZM47.6809 27.9364C47.5913 27.9334 47.502 27.9497 47.4188 27.9843C47.3356 28.0189 47.2603 28.071 47.1977 28.1373C47.1375 28.206 47.0914 28.2866 47.0623 28.3743C47.0332 28.4619 47.0216 28.5547 47.0282 28.6471L50.9662 107.49C50.9862 107.731 51.0912 107.957 51.2612 108.124C51.4312 108.291 51.6546 108.388 51.8893 108.397H95.8846C95.9738 108.401 96.0628 108.385 96.1455 108.35C96.2282 108.316 96.3028 108.263 96.3643 108.197C96.4259 108.129 96.4729 108.048 96.5022 107.96C96.5314 107.873 96.5422 107.779 96.5337 107.687L92.5994 28.8443C92.5802 28.6031 92.476 28.3776 92.3066 28.2103C92.1371 28.043 91.9142 27.9456 91.6798 27.9364H47.6809Z" fill="white"/>
<path opacity="0.3" d="M80.4997 56.5786C85.5036 51.2803 85.1778 42.5787 79.7718 37.143C74.3659 31.7073 65.927 31.5959 60.923 36.8942C55.9191 42.1925 56.2449 50.8942 61.6509 56.3299C67.0568 61.7655 75.4957 61.8769 80.4997 56.5786Z" fill="white"/>
<path d="M81.4996 46.7382C81.6005 48.5668 81.2441 50.3914 80.4646 52.0368C79.6208 53.8017 78.3109 55.2847 76.6859 56.315C75.0609 57.3452 73.1868 57.8808 71.2797 57.86C69.3032 57.8417 67.3651 57.2957 65.6538 56.2752C63.9425 55.2548 62.5164 53.7946 61.5142 52.0368C60.5802 50.4294 60.0428 48.6099 59.9491 46.7382C59.8602 45.3028 60.0594 43.8639 60.5342 42.5115C61.009 41.1592 61.7492 39.9225 62.7085 38.8789C63.6678 37.8352 64.8255 37.0072 66.1093 36.4464C67.393 35.8857 68.7751 35.6044 70.169 35.6201C73.0702 35.6513 75.8521 36.8157 77.9546 38.8787C80.057 40.9417 81.3237 43.7501 81.4996 46.7382Z" fill="white"/>
<path d="M80.4538 52.0369C79.6101 53.8018 78.3002 55.2848 76.6752 56.3151C75.0501 57.3454 73.1761 57.881 71.2689 57.8602C69.2925 57.8418 67.3543 57.2958 65.643 56.2754C63.9317 55.2549 62.5056 53.7948 61.5034 52.0369C64.2438 50.0842 67.4986 49.0452 70.829 49.0602C74.2484 49.0735 77.5911 50.1073 80.4538 52.0369Z" fill="#407BFF"/>
<path d="M74.0521 46.4798C75.8549 44.571 75.7369 41.4353 73.7884 39.4762C71.84 37.517 68.799 37.4763 66.9962 39.3851C65.1934 41.294 65.3114 44.4296 67.2599 46.3888C69.2083 48.3479 72.2493 48.3887 74.0521 46.4798Z" fill="#407BFF"/>
<path d="M89.5809 79.6275H55.1312C54.8311 79.6243 54.5434 79.5039 54.3259 79.2906C54.1084 79.0772 53.9774 78.7868 53.9592 78.4777L53.6995 73.2684C53.6906 73.1203 53.7114 72.9718 53.7606 72.8323C53.8098 72.6927 53.8864 72.5652 53.9856 72.4576C54.0848 72.3501 54.2044 72.2648 54.337 72.2071C54.4696 72.1494 54.6123 72.1206 54.7561 72.1224H89.2059C89.5054 72.1255 89.7926 72.2454 90.01 72.458C90.2274 72.6705 90.3588 72.96 90.3779 73.2684L90.6375 78.4777C90.647 78.6262 90.6266 78.7751 90.5776 78.915C90.5286 79.055 90.4521 79.183 90.3529 79.291C90.2536 79.399 90.1339 79.4846 90.001 79.5425C89.8682 79.6004 89.7251 79.6293 89.5809 79.6275Z" fill="white"/>
<path opacity="0.3" d="M79.0329 69.2461H64.6443C64.343 69.2438 64.0539 69.1233 63.8356 68.9091C63.6173 68.6949 63.4861 68.403 63.4687 68.0927L63.4146 66.9764C63.4051 66.8279 63.4256 66.679 63.4745 66.5391C63.5235 66.3991 63.6 66.2711 63.6993 66.1631C63.7985 66.0552 63.9183 65.9695 64.0511 65.9116C64.184 65.8537 64.327 65.8248 64.4712 65.8266H78.8562C79.1563 65.8298 79.444 65.9502 79.6615 66.1635C79.879 66.3769 80.01 66.6673 80.0282 66.9764L80.0859 68.0927C80.0948 68.2409 80.0741 68.3894 80.0252 68.529C79.9763 68.6687 79.9001 68.7965 79.8014 68.9046C79.7028 69.0127 79.5837 69.0988 79.4515 69.1575C79.3193 69.2163 79.1769 69.2464 79.0329 69.2461Z" fill="black"/>
<path opacity="0.3" d="M84.3845 104.673H62.8304C62.32 104.667 61.8309 104.461 61.461 104.098C61.0912 103.735 60.868 103.241 60.8362 102.716L60.71 100.148C60.6972 99.896 60.7344 99.6437 60.8193 99.4066C60.9042 99.1696 61.035 98.953 61.2037 98.7698C61.3725 98.5867 61.5756 98.4409 61.8007 98.3414C62.0258 98.242 62.2682 98.1908 62.513 98.1912H84.0599C84.5703 98.1977 85.0594 98.403 85.4293 98.7659C85.7991 99.1289 86.0223 99.6227 86.0541 100.148L86.1803 102.716C86.193 102.967 86.1561 103.219 86.0716 103.456C85.9871 103.692 85.857 103.909 85.689 104.092C85.5211 104.275 85.3189 104.421 85.0946 104.521C84.8703 104.62 84.6287 104.672 84.3845 104.673Z" fill="black"/>
<path d="M90.212 92.2265H55.7586C55.4588 92.2224 55.1715 92.1018 54.9543 91.8886C54.737 91.6754 54.6057 91.3855 54.5866 91.0767L54.327 85.8675C54.318 85.7191 54.3388 85.5704 54.388 85.4307C54.4372 85.291 54.5137 85.1633 54.6129 85.0554C54.712 84.9476 54.8316 84.8619 54.9642 84.8038C55.0968 84.7457 55.2395 84.7164 55.3836 84.7177H89.8333C90.1334 84.7209 90.4211 84.8413 90.6386 85.0546C90.8561 85.268 90.9871 85.5584 91.0053 85.8675L91.2686 91.0767C91.277 91.225 91.2558 91.3734 91.2064 91.5129C91.1571 91.6523 91.0805 91.7799 90.9815 91.8876C90.8825 91.9953 90.7631 92.081 90.6307 92.1393C90.4984 92.1976 90.3559 92.2273 90.212 92.2265Z" fill="white"/>
<path d="M59.5021 75.873C59.512 76.0374 59.4889 76.2022 59.4344 76.357C59.3798 76.5118 59.2949 76.6534 59.1849 76.7728C59.0749 76.8922 58.9422 76.987 58.7951 77.0511C58.648 77.1152 58.4897 77.1474 58.3301 77.1455C57.9984 77.1414 57.6805 77.0079 57.4403 76.7719C57.2001 76.5358 57.0555 76.2146 57.0354 75.873C57.025 75.7087 57.0476 75.544 57.1017 75.3892C57.1559 75.2344 57.2405 75.0928 57.3502 74.9733C57.4599 74.8538 57.5924 74.759 57.7393 74.6948C57.8862 74.6307 58.0443 74.5985 58.2038 74.6004C58.5359 74.6044 58.8542 74.7378 59.095 74.9738C59.3358 75.2098 59.4812 75.531 59.5021 75.873Z" fill="#263238"/>
<path d="M63.2992 75.873C63.3097 76.0372 63.2871 76.2019 63.233 76.3567C63.1788 76.5116 63.0942 76.6532 62.9845 76.7726C62.8748 76.8921 62.7423 76.9869 62.5954 77.0511C62.4485 77.1153 62.2904 77.1474 62.1308 77.1455C61.7989 77.1423 61.4805 77.0091 61.2402 76.7728C60.9998 76.5366 60.8554 76.2149 60.8362 75.873C60.8258 75.7087 60.8483 75.544 60.9025 75.3892C60.9567 75.2344 61.0413 75.0928 61.151 74.9733C61.2607 74.8538 61.3931 74.759 61.54 74.6948C61.6869 74.6307 61.8451 74.5985 62.0046 74.6004C62.3366 74.6036 62.6549 74.7368 62.8953 74.9731C63.1357 75.2094 63.2801 75.531 63.2992 75.873Z" fill="#263238"/>
<path d="M67.0746 75.873C67.085 76.0372 67.0625 76.2019 67.0083 76.3567C66.9541 76.5115 66.8695 76.6532 66.7598 76.7726C66.6501 76.8921 66.5177 76.9869 66.3708 77.0511C66.2239 77.1153 66.0657 77.1474 65.9062 77.1455C65.5741 77.1415 65.2558 77.0081 65.015 76.7721C64.7743 76.5361 64.6289 76.2149 64.608 75.873C64.598 75.7085 64.6211 75.5438 64.6757 75.3889C64.7302 75.2341 64.8152 75.0926 64.9252 74.9731C65.0352 74.8537 65.1678 74.759 65.3149 74.6948C65.462 74.6307 65.6203 74.5986 65.78 74.6004C66.1117 74.6045 66.4296 74.738 66.6697 74.9741C66.9099 75.2102 67.0546 75.5313 67.0746 75.873Z" fill="#263238"/>
<path d="M70.8793 75.8733C70.8892 76.0374 70.8662 76.2019 70.8119 76.3564C70.7575 76.511 70.6729 76.6524 70.5633 76.7718C70.4537 76.8911 70.3214 76.986 70.1748 77.0503C70.0281 77.1147 69.8702 77.1472 69.7109 77.1458C69.3788 77.1418 69.0605 77.0085 68.8197 76.7725C68.579 76.5365 68.4335 76.2153 68.4126 75.8733C68.4027 75.7092 68.4257 75.5447 68.48 75.3901C68.5344 75.2356 68.619 75.0942 68.7286 74.9748C68.8382 74.8555 68.9705 74.7606 69.1171 74.6963C69.2638 74.6319 69.4217 74.5994 69.581 74.6007C69.9131 74.6048 70.2314 74.7381 70.4722 74.9741C70.713 75.2101 70.8584 75.5313 70.8793 75.8733Z" fill="#263238"/>
<path d="M60.1403 88.4645C60.1507 88.6288 60.1281 88.7935 60.074 88.9483C60.0198 89.1031 59.9352 89.2447 59.8255 89.3642C59.7158 89.4837 59.5833 89.5785 59.4364 89.6427C59.2895 89.7068 59.1314 89.739 58.9719 89.7371C58.6398 89.7331 58.3215 89.5997 58.0807 89.3637C57.8399 89.1277 57.6945 88.8065 57.6736 88.4645C57.6637 88.3001 57.6868 88.1353 57.7413 87.9805C57.7959 87.8257 57.8808 87.6841 57.9908 87.5647C58.1008 87.4453 58.2335 87.3505 58.3806 87.2864C58.5277 87.2223 58.686 87.1901 58.8456 87.192C59.1773 87.196 59.4952 87.3296 59.7354 87.5656C59.9756 87.8017 60.1202 88.1229 60.1403 88.4645Z" fill="#263238"/>
<path d="M63.9308 88.4645C63.9407 88.6286 63.9177 88.7931 63.8634 88.9477C63.809 89.1023 63.7244 89.2436 63.6148 89.363C63.5052 89.4824 63.373 89.5772 63.2263 89.6415C63.0797 89.7059 62.9217 89.7384 62.7624 89.7371C62.4303 89.7331 62.112 89.5997 61.8712 89.3637C61.6305 89.1277 61.4851 88.8065 61.4642 88.4645C61.4537 88.3003 61.4763 88.1356 61.5304 87.9808C61.5846 87.826 61.6692 87.6843 61.7789 87.5649C61.8886 87.4454 62.0211 87.3506 62.168 87.2864C62.3149 87.2222 62.473 87.1901 62.6326 87.192C62.9646 87.196 63.2829 87.3294 63.5237 87.5654C63.7645 87.8014 63.9099 88.1226 63.9308 88.4645Z" fill="#263238"/>
<path d="M67.7203 88.4645C67.7303 88.629 67.7072 88.7937 67.6526 88.9486C67.5981 89.1034 67.5131 89.2449 67.4031 89.3644C67.2931 89.4838 67.1605 89.5785 67.0134 89.6427C66.8663 89.7068 66.708 89.7389 66.5483 89.7371C66.2164 89.7339 65.898 89.6007 65.6576 89.3644C65.4173 89.1281 65.2729 88.8065 65.2537 88.4645C65.2433 88.3003 65.2658 88.1356 65.32 87.9808C65.3742 87.826 65.4587 87.6843 65.5685 87.5649C65.6782 87.4454 65.8106 87.3506 65.9575 87.2864C66.1044 87.2222 66.2626 87.1901 66.4221 87.192C66.7542 87.196 67.0725 87.3294 67.3133 87.5654C67.554 87.8014 67.6994 88.1226 67.7203 88.4645Z" fill="#263238"/>
<path d="M71.5067 88.4645C71.5172 88.6288 71.4946 88.7935 71.4404 88.9483C71.3863 89.1031 71.3017 89.2447 71.192 89.3642C71.0823 89.4837 70.9498 89.5785 70.8029 89.6427C70.656 89.7068 70.4978 89.739 70.3383 89.7371C70.0062 89.7331 69.6879 89.5997 69.4472 89.3637C69.2064 89.1277 69.061 88.8065 69.0401 88.4645C69.0302 88.3001 69.0532 88.1353 69.1078 87.9805C69.1624 87.8257 69.2473 87.6841 69.3573 87.5647C69.4673 87.4453 69.6 87.3505 69.747 87.2864C69.8941 87.2223 70.0524 87.1901 70.2121 87.192C70.544 87.1952 70.8624 87.3284 71.1028 87.5647C71.3431 87.8009 71.4875 88.1226 71.5067 88.4645Z" fill="#263238"/>
<path d="M75.297 88.4646C75.3074 88.6289 75.2849 88.7936 75.2307 88.9484C75.1765 89.1032 75.092 89.2448 74.9822 89.3643C74.8725 89.4838 74.7401 89.5786 74.5932 89.6427C74.4463 89.7069 74.2881 89.7391 74.1286 89.7372C73.7965 89.7332 73.4782 89.5998 73.2374 89.3638C72.9967 89.1278 72.8513 88.8066 72.8304 88.4646C72.8205 88.3005 72.8434 88.136 72.8978 87.9815C72.9521 87.8269 73.0367 87.6855 73.1463 87.5661C73.2559 87.4468 73.3882 87.352 73.5348 87.2876C73.6815 87.2232 73.8394 87.1907 73.9988 87.1921C74.3308 87.1961 74.6492 87.3295 74.8899 87.5655C75.1307 87.8015 75.2761 88.1226 75.297 88.4646Z" fill="#263238"/>
<path d="M79.0868 88.4645C79.0967 88.629 79.0737 88.7937 79.0191 88.9486C78.9645 89.1034 78.8796 89.2449 78.7696 89.3644C78.6596 89.4838 78.5269 89.5785 78.3798 89.6427C78.2328 89.7068 78.0744 89.7389 77.9148 89.7371C77.5831 89.733 77.2652 89.5995 77.025 89.3634C76.7848 89.1273 76.6402 88.8062 76.6202 88.4645C76.6097 88.3003 76.6323 88.1356 76.6864 87.9808C76.7406 87.826 76.8252 87.6843 76.9349 87.5649C77.0446 87.4454 77.1771 87.3506 77.324 87.2864C77.4709 87.2222 77.6291 87.1901 77.7886 87.192C78.1206 87.196 78.4389 87.3294 78.6797 87.5654C78.9205 87.8014 79.0659 88.1226 79.0868 88.4645Z" fill="#263238"/>
<path d="M120.086 45.2538C120.176 45.3952 120.223 45.4696 120.28 45.5701L120.443 45.8454C120.547 46.0315 120.641 46.2175 120.731 46.3998C120.911 46.7719 121.092 47.144 121.236 47.5161C121.538 48.2551 121.798 49.0117 122.015 49.7821C122.451 51.3039 122.739 52.8671 122.873 54.4482L122.898 54.7421C122.901 54.8016 122.901 54.8612 122.898 54.9207V55.1179C122.904 55.3767 122.89 55.6355 122.855 55.8919C122.786 56.3671 122.665 56.8326 122.494 57.2798C122.178 58.0784 121.758 58.8294 121.247 59.5123C120.293 60.7724 119.161 61.8774 117.889 62.7905L116.894 61.5886C117.8 60.5332 118.602 59.3877 119.289 58.1691C119.598 57.6162 119.84 57.0264 120.01 56.4128C120.079 56.1529 120.119 55.8858 120.129 55.6165C120.14 55.5015 120.14 55.3855 120.129 55.2705V55.1923C120.132 55.1577 120.132 55.1228 120.129 55.0882L120.086 54.8277C119.854 53.441 119.526 52.0731 119.105 50.7347C118.895 50.0687 118.639 49.4249 118.383 48.7961C118.257 48.4798 118.113 48.171 117.969 47.8733L117.745 47.4342L117.633 47.2296L117.54 47.0659L120.086 45.2538Z" fill="#803E3C"/>
<path d="M116.732 62.798L118.037 65.6445L119.072 63.237C119.072 63.237 118.153 61.1533 116.908 61.3468L116.732 62.798Z" fill="#7F3E3B"/>
<path d="M118.971 65.7858L120.01 64.0295L119.072 63.2369L118.037 65.6444L118.971 65.7858Z" fill="#7F3E3B"/>
<path d="M113.1 131.43C113.37 131.423 113.639 131.386 113.901 131.318C113.914 131.314 113.926 131.306 113.936 131.296C113.945 131.286 113.952 131.273 113.955 131.259C113.957 131.244 113.955 131.23 113.95 131.217C113.944 131.203 113.934 131.192 113.923 131.184C113.818 131.114 112.902 130.503 112.549 130.667C112.509 130.686 112.476 130.715 112.451 130.752C112.426 130.788 112.412 130.831 112.408 130.876C112.397 130.943 112.402 131.012 112.423 131.077C112.444 131.142 112.479 131.2 112.527 131.248C112.69 131.378 112.894 131.443 113.1 131.43ZM113.695 131.21C113.172 131.322 112.776 131.303 112.613 131.158C112.58 131.124 112.556 131.082 112.543 131.036C112.53 130.99 112.528 130.941 112.538 130.894C112.538 130.831 112.574 130.812 112.599 130.801C112.794 130.712 113.324 130.976 113.695 131.21Z" fill="#407BFF"/>
<path d="M113.883 131.318H113.919C113.93 131.311 113.939 131.301 113.945 131.29C113.951 131.278 113.955 131.265 113.955 131.251C113.955 131.214 113.955 130.318 113.623 130.016C113.583 129.978 113.535 129.95 113.482 129.933C113.43 129.917 113.375 129.912 113.32 129.919C113.264 129.92 113.209 129.94 113.165 129.978C113.121 130.015 113.09 130.067 113.079 130.124C113.01 130.478 113.558 131.147 113.847 131.318H113.883ZM113.367 130.057C113.397 130.056 113.426 130.061 113.453 130.072C113.48 130.083 113.505 130.099 113.526 130.12C113.716 130.41 113.815 130.753 113.807 131.103C113.519 130.865 113.176 130.358 113.22 130.146C113.22 130.113 113.245 130.068 113.335 130.057H113.367Z" fill="#407BFF"/>
<path d="M109.696 129.912C109.705 129.901 109.71 129.888 109.712 129.874C109.714 129.86 109.712 129.846 109.707 129.833C109.702 129.82 109.694 129.809 109.683 129.801C109.672 129.792 109.659 129.787 109.646 129.785C109.498 129.785 108.203 129.722 107.908 130.049V130.072C107.883 130.104 107.867 130.142 107.862 130.183C107.856 130.223 107.861 130.264 107.875 130.303C107.895 130.366 107.929 130.425 107.974 130.472C108.02 130.519 108.077 130.554 108.139 130.574C108.557 130.708 109.296 130.221 109.7 129.919L109.696 129.912ZM108.016 130.146C108.178 129.968 108.892 129.919 109.426 129.927C108.867 130.321 108.402 130.507 108.167 130.433C108.127 130.42 108.089 130.397 108.059 130.366C108.029 130.335 108.007 130.296 107.994 130.254C107.987 130.24 107.983 130.224 107.983 130.208C107.983 130.191 107.987 130.175 107.994 130.161L108.016 130.146Z" fill="#407BFF"/>
<path d="M109.696 129.912C109.702 129.9 109.704 129.887 109.704 129.875C109.704 129.862 109.702 129.849 109.696 129.837C109.678 129.808 109.274 129.093 108.798 128.944C108.73 128.924 108.658 128.918 108.587 128.927C108.517 128.936 108.449 128.959 108.387 128.996C108.214 129.101 108.203 129.223 108.225 129.302C108.319 129.648 109.238 129.953 109.635 129.949C109.647 129.949 109.659 129.945 109.67 129.939C109.681 129.932 109.69 129.923 109.696 129.912ZM108.401 129.168C108.422 129.147 108.445 129.129 108.47 129.116C108.514 129.086 108.565 129.067 108.617 129.06C108.669 129.053 108.723 129.058 108.773 129.075C109.087 129.16 109.379 129.577 109.512 129.782C109.083 129.733 108.43 129.462 108.376 129.253C108.372 129.237 108.372 129.221 108.376 129.205C108.381 129.189 108.389 129.175 108.401 129.164V129.168Z" fill="#407BFF"/>
<path d="M113.666 34.3552C113.306 36.2157 112.527 40.238 113.778 41.4733C113.778 41.4733 113.288 43.3338 109.959 43.3338C106.295 43.3338 108.21 41.4733 108.21 41.4733C110.208 40.9822 110.158 39.4492 109.808 38.0129L113.666 34.3552Z" fill="#7F3E3B"/>
<path d="M107.566 29.9943C107.586 29.9977 107.607 29.9977 107.627 29.9943C107.644 29.9856 107.659 29.9735 107.672 29.9586C107.684 29.9438 107.694 29.9265 107.7 29.9078C107.706 29.8891 107.708 29.8694 107.707 29.8498C107.706 29.8301 107.7 29.8109 107.692 29.7934C107.595 29.5811 107.45 29.396 107.269 29.2535C107.088 29.1111 106.877 29.0155 106.653 28.9748C106.616 28.9715 106.578 28.9832 106.549 29.0074C106.519 29.0316 106.5 29.0665 106.494 29.105C106.49 29.1439 106.501 29.183 106.525 29.2136C106.549 29.2443 106.583 29.2641 106.621 29.2687C106.798 29.3038 106.964 29.3818 107.105 29.4963C107.247 29.6108 107.36 29.7586 107.436 29.9273C107.45 29.9493 107.469 29.9671 107.492 29.9789C107.515 29.9907 107.54 29.996 107.566 29.9943Z" fill="#263238"/>
<path d="M106.472 31.6278C106.189 32.171 105.834 32.6717 105.419 33.1162C105.532 33.2222 105.665 33.3018 105.81 33.3493C105.955 33.3969 106.109 33.4113 106.26 33.3915L106.472 31.6278Z" fill="#630F0F"/>
<path d="M106.743 31.2075C106.714 31.4568 106.559 31.6428 106.404 31.6242C106.249 31.6056 106.141 31.3861 106.169 31.1368C106.198 30.8875 106.353 30.7014 106.53 30.72C106.707 30.7386 106.768 30.9582 106.743 31.2075Z" fill="#263238"/>
<path d="M106.577 30.742L106.022 30.5114C106.022 30.5114 106.256 31.0025 106.577 30.742Z" fill="#263238"/>
<path d="M112.881 129.205L109.938 129.912L108.15 122.932L111.092 122.225L112.881 129.205Z" fill="#7F3E3B"/>
<path d="M117.395 131.244H114.377L114.611 124.029H117.633L117.395 131.244Z" fill="#7F3E3B"/>
<path d="M114.136 130.883H117.529C117.588 130.883 117.645 130.904 117.689 130.944C117.734 130.984 117.763 131.039 117.771 131.099L118.157 133.867C118.164 133.937 118.157 134.008 118.137 134.075C118.116 134.142 118.081 134.204 118.036 134.256C117.99 134.309 117.934 134.351 117.872 134.379C117.809 134.408 117.742 134.422 117.673 134.422C116.49 134.403 115.921 134.329 114.428 134.329C113.508 134.329 112.167 134.429 110.901 134.429C109.635 134.429 109.563 133.134 110.093 133.019C112.459 132.49 112.834 131.769 113.631 131.077C113.772 130.952 113.95 130.884 114.136 130.883Z" fill="#263238"/>
<path d="M109.678 129.447L112.762 127.984C112.814 127.959 112.874 127.954 112.929 127.97C112.985 127.986 113.033 128.023 113.065 128.074L114.539 130.425C114.574 130.486 114.596 130.553 114.603 130.623C114.611 130.693 114.604 130.763 114.584 130.83C114.564 130.897 114.53 130.959 114.485 131.012C114.44 131.064 114.385 131.107 114.323 131.136C113.241 131.627 112.693 131.81 111.337 132.453C110.504 132.848 108.813 133.756 107.666 134.314C106.519 134.872 105.928 133.715 106.361 133.38C108.297 131.891 108.853 130.824 109.296 129.852C109.371 129.673 109.507 129.529 109.678 129.447Z" fill="#263238"/>
<path opacity="0.2" d="M108.15 122.932L109.109 126.675L112.015 125.823L111.096 122.225L108.15 122.932Z" fill="black"/>
<path opacity="0.2" d="M117.634 124.029H114.612L114.493 127.75H117.515L117.634 124.029Z" fill="black"/>
<path d="M119.004 42.1803C120.259 42.4668 121.6 47.1217 121.6 47.1217L118.052 51.0175C118.052 51.0175 115.105 46.6417 115.708 45.0343C116.317 43.3561 117.507 41.8455 119.004 42.1803Z" fill="#263238"/>
<path opacity="0.4" d="M116.999 45.1458C116.364 44.5467 115.935 44.7253 115.643 45.2016C115.355 46.5858 117.064 49.4844 117.753 50.5821C118.07 49.2723 118.434 46.5114 116.999 45.1458Z" fill="black"/>
<path d="M103.104 42.2732C103.104 42.2732 101.662 42.7942 104.547 61.0825H116.808C116.602 55.9327 116.595 52.7551 118.971 42.1802C117.253 41.8145 115.512 41.5782 113.761 41.4732C111.907 41.3354 110.046 41.3354 108.193 41.4732C105.816 41.7002 103.104 42.2732 103.104 42.2732Z" fill="#263238"/>
<path opacity="0.4" d="M102.992 49.291C103.072 50.1803 103.176 51.1813 103.313 52.3124C104.319 51.3785 105.142 48.7217 104.839 47.1738C104.12 47.7758 103.497 48.4902 102.992 49.291Z" fill="black"/>
<path d="M104.305 46.5114C103.644 48.2296 102.899 49.9124 102.073 51.5533C101.257 53.2534 100.291 54.8726 99.1881 56.3905L98.9573 56.6844L98.8419 56.8295C98.8022 56.8779 98.7697 56.9225 98.7084 56.9895C98.4914 57.2338 98.2496 57.4534 97.9872 57.6444C97.5233 57.9757 97.0157 58.2363 96.4798 58.4184C95.5453 58.7263 94.5751 58.904 93.5949 58.9467C91.7592 59.022 89.9218 58.8532 88.1279 58.4444L88.3263 56.8816C89.1557 56.8816 90.0248 56.8816 90.8506 56.8109C91.68 56.7688 92.5062 56.6744 93.3244 56.5281C94.0844 56.4058 94.8276 56.191 95.5386 55.8881C95.8257 55.7616 96.0941 55.5937 96.3356 55.3895C96.4277 55.3099 96.5112 55.22 96.5844 55.1216C96.5844 55.1216 96.6277 55.0621 96.6565 55.0212L96.7395 54.8984L96.909 54.6528C97.8138 53.2106 98.62 51.7049 99.3215 50.1468C100.043 48.5654 100.764 46.9244 101.424 45.3096L104.305 46.5114Z" fill="#803E3C"/>
<path d="M103.104 42.2732C101.601 42.6453 99.7542 46.902 99.7542 46.902L102.87 51.6276C102.87 51.6276 107.021 46.236 106.527 44.5913C106.022 42.876 104.94 41.8118 103.104 42.2732Z" fill="#263238"/>
<path d="M89.1915 57.1199L86.5914 55.8809L86.3318 58.5488C86.3318 58.5488 88.4955 59.2074 89.5773 58.5488L89.1915 57.1199Z" fill="#7F3E3B"/>
<path d="M85.0369 55.6128L84.7881 57.6444L86.3315 58.5486L86.5912 55.8807L85.0369 55.6128Z" fill="#7F3E3B"/>
<path d="M114.972 31.3899C114.42 34.4298 114.251 35.7322 112.563 37.1126C110.039 39.1889 106.523 37.827 106.184 34.6791C105.874 31.8438 106.826 27.3489 109.88 26.4931C110.553 26.3016 111.262 26.2911 111.94 26.4627C112.618 26.6342 113.242 26.9821 113.753 27.4731C114.263 27.9641 114.643 28.5819 114.857 29.2676C115.07 29.9532 115.11 30.6839 114.972 31.3899Z" fill="#7F3E3B"/>
<path d="M108.499 32.0295C108.329 33.5811 108.264 37.6109 111.568 37.7374C115.61 37.8899 116.822 34.3253 116.461 32.9002C118.567 31.1328 118.87 28.0928 116.505 25.7672C114.139 23.4416 108.932 24.7402 107.489 27.0063C105.661 29.8156 108.499 32.0295 108.499 32.0295Z" fill="#263238"/>
<path d="M112.549 26.6716C112.354 25.0344 112.505 23.907 113.991 23.907C115.477 23.907 117.504 24.4614 118.246 26.0279C118.989 27.5944 119.051 30.0465 116.977 29.7972C114.904 29.5479 112.783 28.6288 112.549 26.6716Z" fill="#407BFF"/>
<path d="M114.85 26.277C114.489 24.3272 116.18 18.8351 120.288 18.463C122.192 18.2956 123.072 20.4091 122.091 20.7588C123.894 20.7365 125.048 23.196 123.368 23.5644C124.695 24.4426 124.366 26.2435 122.473 27.1291C121.063 27.7988 115.337 28.9783 114.85 26.277Z" fill="#263238"/>
<path d="M119.238 28.3719C117.915 28.3719 116.533 28.1709 115.675 27.5793C115.435 27.4301 115.233 27.2239 115.086 26.978C114.938 26.7322 114.85 26.4536 114.828 26.1654C114.827 26.1409 114.835 26.1169 114.85 26.0983C114.865 26.0796 114.887 26.0677 114.911 26.0649C114.923 26.0633 114.935 26.0644 114.946 26.0679C114.958 26.0715 114.968 26.0775 114.978 26.0855C114.987 26.0936 114.994 26.1035 114.999 26.1147C115.005 26.1259 115.008 26.1381 115.008 26.1505C115.03 26.4106 115.111 26.6617 115.244 26.8834C115.378 27.1052 115.56 27.2914 115.776 27.4268C117.41 28.543 121.185 28.1709 122.361 27.7989C123.378 27.4565 124.067 26.7905 124.204 26.024C124.247 25.7427 124.213 25.4547 124.107 25.192C124 24.9292 123.825 24.702 123.602 24.5356C123.593 24.5273 123.586 24.5172 123.581 24.506C123.577 24.4948 123.574 24.4827 123.574 24.4705C123.574 24.4583 123.577 24.4462 123.581 24.435C123.586 24.4238 123.593 24.4137 123.602 24.4054C123.618 24.3883 123.641 24.3788 123.665 24.3788C123.688 24.3788 123.711 24.3883 123.728 24.4054C123.979 24.5949 124.175 24.8529 124.293 25.1505C124.411 25.4482 124.446 25.7738 124.395 26.0909C124.247 26.9282 123.515 27.6426 122.433 28.0072C121.389 28.2787 120.314 28.4014 119.238 28.3719Z" fill="#263238"/>
<path d="M107.58 31.6276C107.244 32.1136 107.105 32.7158 107.194 33.3057C107.313 34.0871 108.048 34.1392 108.582 33.6406C109.116 33.142 109.581 32.2415 109.188 31.5941C109.101 31.4543 108.98 31.3398 108.838 31.2616C108.695 31.1835 108.536 31.1442 108.375 31.1475C108.214 31.1509 108.056 31.1968 107.917 31.2808C107.777 31.3648 107.661 31.4842 107.58 31.6276Z" fill="#7F3E3B"/>
<path d="M107.785 61.0828C107.785 61.0828 109.538 82.4743 111.359 94.5301C112.826 104.268 113.988 127.029 113.988 127.029H118.106C118.106 127.029 119.57 104.949 118.827 95.3189C116.941 70.9469 121.149 68.9599 116.818 61.0865L107.785 61.0828Z" fill="#407BFF"/>
<path opacity="0.4" d="M112.971 69.1682C111.339 70.9357 110.021 72.9863 109.08 75.2259C109.559 80.0333 110.129 85.3691 110.735 90.0425C113.221 83.4019 113.991 76.2087 112.971 69.1682Z" fill="black"/>
<path d="M104.904 60.9484C104.904 60.9484 101.099 84.312 100.5 94.8422C101.993 104.58 108.102 125.164 108.102 125.164L111.849 123.761C111.849 123.761 109.776 101.317 107.522 95.1733C112.596 77.5474 116.324 73.0897 115.239 61.0823C112.639 61.0823 104.904 60.9484 104.904 60.9484Z" fill="#407BFF"/>
<path d="M107.601 126.191L112.664 124.773L112.375 122.69L106.955 124.204L107.601 126.191Z" fill="#263238"/>
<path d="M113.421 127.114H118.668L118.942 125.216L113.393 125.023L113.421 127.114Z" fill="#263238"/>
<path d="M116.999 60.3385L117.55 61.4734C117.594 61.5627 117.493 61.652 117.352 61.652H104.485C104.377 61.652 104.283 61.5961 104.276 61.5217L104.164 60.4055C104.164 60.3273 104.254 60.2603 104.373 60.2603H116.797C116.834 60.2551 116.872 60.2595 116.907 60.2731C116.943 60.2867 116.974 60.3092 116.999 60.3385Z" fill="#407BFF"/>
<path opacity="0.5" d="M116.999 60.3385L117.55 61.4734C117.594 61.5627 117.493 61.652 117.352 61.652H104.485C104.377 61.652 104.283 61.5961 104.276 61.5217L104.164 60.4055C104.164 60.3273 104.254 60.2603 104.373 60.2603H116.797C116.834 60.2551 116.872 60.2595 116.907 60.2731C116.943 60.2867 116.974 60.3092 116.999 60.3385Z" fill="black"/>
<path d="M115.329 61.7671H115.661C115.73 61.7671 115.78 61.7299 115.776 61.6889L115.618 60.2006C115.618 60.1559 115.556 60.1224 115.492 60.1224H115.156C115.091 60.1224 115.041 60.1559 115.044 60.2006L115.199 61.6889C115.207 61.7373 115.264 61.7671 115.329 61.7671Z" fill="#407BFF"/>
<path d="M110.865 50.9318C110.825 50.9312 110.786 50.9175 110.754 50.8928C110.723 50.868 110.699 50.8335 110.688 50.7942C109.512 46.3067 107.082 42.6081 105.902 42.05C105.811 41.9919 105.701 41.9732 105.596 41.9979C105.574 42.0098 105.55 42.0169 105.526 42.0188C105.501 42.0208 105.476 42.0175 105.453 42.0093C105.43 42.001 105.409 41.9879 105.39 41.9708C105.372 41.9537 105.358 41.9329 105.347 41.9098C105.337 41.8866 105.332 41.8616 105.332 41.8362C105.331 41.8108 105.336 41.7856 105.345 41.7621C105.355 41.7386 105.369 41.7174 105.386 41.6997C105.404 41.6821 105.425 41.6683 105.448 41.6593C105.547 41.622 105.652 41.6073 105.757 41.6163C105.861 41.6253 105.963 41.6577 106.054 41.7114C107.302 42.3216 109.768 45.9681 111.002 50.556C111.885 50.556 113.248 50.4332 113.58 50.4035C113.991 49.8974 117.013 45.9979 115.884 41.73C115.878 41.7066 115.876 41.682 115.879 41.6578C115.882 41.6335 115.889 41.6101 115.901 41.589C115.913 41.5678 115.928 41.5493 115.947 41.5345C115.966 41.5198 115.988 41.5091 116.011 41.503C116.056 41.4905 116.105 41.4971 116.146 41.5215C116.188 41.5459 116.218 41.586 116.231 41.6333C117.489 46.3812 113.84 50.6639 113.8 50.7049C113.786 50.7229 113.768 50.7378 113.749 50.7487C113.729 50.7596 113.707 50.7662 113.685 50.7681C113.667 50.7681 111.867 50.9318 110.865 50.9318Z" fill="#407BFF"/>
<path d="M116.84 53.559C114.875 49.7599 114.071 49.492 113.721 48.2715C113.986 47.5891 114.364 46.9595 114.839 46.4111C114.601 46.3404 114.089 46.2362 113.757 46.1729C113.793 46.0055 113.833 45.8418 113.869 45.6818C113.508 45.6401 113.143 45.6577 112.787 45.7339V45.3618C112.329 45.259 111.858 45.2276 111.391 45.2688C111.432 45.4449 111.472 45.6235 111.51 45.8046C111.15 45.8753 110.601 45.9906 110.338 46.0688C110.85 46.6666 111.226 47.3746 111.438 48.1413C110.378 50.0204 106.26 62.0985 112.96 63.025C119.66 63.9515 118.802 57.3617 116.84 53.559Z" fill="#407BFF"/>
<path opacity="0.4" d="M116.84 53.559C114.875 49.7599 114.071 49.492 113.721 48.2715C113.986 47.5891 114.364 46.9595 114.839 46.4111C114.601 46.3404 114.089 46.2362 113.757 46.1729C113.793 46.0055 113.833 45.8418 113.869 45.6818C113.508 45.6401 113.143 45.6577 112.787 45.7339V45.3618C112.329 45.259 111.858 45.2276 111.391 45.2688C111.432 45.4449 111.472 45.6235 111.51 45.8046C111.15 45.8753 110.601 45.9906 110.338 46.0688C110.85 46.6666 111.226 47.3746 111.438 48.1413C110.378 50.0204 106.26 62.0985 112.96 63.025C119.66 63.9515 118.802 57.3617 116.84 53.559Z" fill="white"/>
<path d="M111.164 47.7803C111.122 47.972 111.104 48.1682 111.11 48.3645C111.11 48.5022 111.471 48.5952 111.871 48.6362C112.271 48.6771 113.952 48.7441 113.898 48.5506C113.843 48.3571 113.98 48.0929 113.988 47.9292C113.995 47.7655 113.321 47.758 112.754 47.7803C112.188 47.8027 111.276 47.572 111.164 47.7803Z" fill="#407BFF"/>
<path d="M107.266 61.7671H107.598C107.663 61.7671 107.713 61.7299 107.71 61.6889L107.554 60.2006C107.554 60.1559 107.493 60.1224 107.425 60.1224H107.104C107.039 60.1224 106.988 60.1559 106.992 60.2006L107.147 61.6889C107.14 61.7373 107.197 61.7671 107.266 61.7671Z" fill="#407BFF"/>
</svg>
