<svg width="39" height="46" viewBox="0 0 39 46" fill="none" xmlns="http://www.w3.org/2000/svg">
<g filter="url(#filter0_d_80_394)">
<path d="M30.7715 4.6808H24.3973C24.3973 2.09905 22.1106 0 19.298 0C16.4854 0 14.1987 2.09905 14.1987 4.6808H7.8245C5.71306 4.6808 4 6.25326 4 8.19141V33.9358C4 35.874 5.71306 37.4464 7.8245 37.4464H30.7715C32.8829 37.4464 34.596 35.874 34.596 33.9358V8.19141C34.596 6.25326 32.8829 4.6808 30.7715 4.6808ZM11.649 31.0103C10.5893 31.0103 9.73675 30.2278 9.73675 29.255C9.73675 28.2823 10.5893 27.4997 11.649 27.4997C12.7087 27.4997 13.5612 28.2823 13.5612 29.255C13.5612 30.2278 12.7087 31.0103 11.649 31.0103ZM11.649 23.9891C10.5893 23.9891 9.73675 23.2065 9.73675 22.2338C9.73675 21.2611 10.5893 20.4785 11.649 20.4785C12.7087 20.4785 13.5612 21.2611 13.5612 22.2338C13.5612 23.2065 12.7087 23.9891 11.649 23.9891ZM11.649 16.9679C10.5893 16.9679 9.73675 16.1853 9.73675 15.2126C9.73675 14.2399 10.5893 13.4573 11.649 13.4573C12.7087 13.4573 13.5612 14.2399 13.5612 15.2126C13.5612 16.1853 12.7087 16.9679 11.649 16.9679ZM19.298 2.9255C20.3577 2.9255 21.2102 3.70807 21.2102 4.6808C21.2102 5.65353 20.3577 6.43611 19.298 6.43611C18.2383 6.43611 17.3857 5.65353 17.3857 4.6808C17.3857 3.70807 18.2383 2.9255 19.298 2.9255ZM29.4967 29.8401C29.4967 30.1619 29.2098 30.4252 28.8592 30.4252H17.3857C17.0352 30.4252 16.7483 30.1619 16.7483 29.8401V28.6699C16.7483 28.3481 17.0352 28.0848 17.3857 28.0848H28.8592C29.2098 28.0848 29.4967 28.3481 29.4967 28.6699V29.8401ZM29.4967 22.8189C29.4967 23.1407 29.2098 23.404 28.8592 23.404H17.3857C17.0352 23.404 16.7483 23.1407 16.7483 22.8189V21.6487C16.7483 21.3269 17.0352 21.0636 17.3857 21.0636H28.8592C29.2098 21.0636 29.4967 21.3269 29.4967 21.6487V22.8189ZM29.4967 15.7977C29.4967 16.1195 29.2098 16.3828 28.8592 16.3828H17.3857C17.0352 16.3828 16.7483 16.1195 16.7483 15.7977V14.6275C16.7483 14.3057 17.0352 14.0424 17.3857 14.0424H28.8592C29.2098 14.0424 29.4967 14.3057 29.4967 14.6275V15.7977Z" fill="#A6A6A6"/>
</g>
<defs>
<filter id="filter0_d_80_394" x="0" y="0" width="38.5962" height="45.4465" filterUnits="userSpaceOnUse" color-interpolation-filters="sRGB">
<feFlood flood-opacity="0" result="BackgroundImageFix"/>
<feColorMatrix in="SourceAlpha" type="matrix" values="0 0 0 0 0 0 0 0 0 0 0 0 0 0 0 0 0 0 127 0" result="hardAlpha"/>
<feOffset dy="4"/>
<feGaussianBlur stdDeviation="2"/>
<feComposite in2="hardAlpha" operator="out"/>
<feColorMatrix type="matrix" values="0 0 0 0 0 0 0 0 0 0 0 0 0 0 0 0 0 0 0.25 0"/>
<feBlend mode="normal" in2="BackgroundImageFix" result="effect1_dropShadow_80_394"/>
<feBlend mode="normal" in="SourceGraphic" in2="effect1_dropShadow_80_394" result="shape"/>
</filter>
</defs>
</svg>
