<svg width="50" height="46" viewBox="0 0 50 46" fill="none" xmlns="http://www.w3.org/2000/svg">
<g filter="url(#filter0_d_80_396)">
<path d="M40.3977 8.18981C37.6135 8.22638 35.3259 10.267 35.2689 12.7685C35.2282 14.5458 36.2866 16.1037 37.874 16.9229V25.1586C37.874 29.3497 33.7873 32.7654 28.7563 32.7654C23.8718 32.7654 19.8665 29.5398 19.6467 25.5097C25.5732 24.4126 30.0507 19.6877 30.0507 14.0411V2.67494C30.0507 1.84112 29.3913 1.11702 28.4795 0.956111L23.3589 0.0345271C22.3006 -0.155641 21.2749 0.458748 21.0632 1.40959L20.8027 2.55791C20.591 3.50875 21.2749 4.43033 22.3332 4.6205L24.8324 5.06667V13.9461C24.8324 17.8152 21.397 21.0188 17.0905 21.0554C12.7433 21.092 9.20199 17.9323 9.20199 14.0338V5.07398L11.7012 4.62782C12.7595 4.43765 13.4434 3.51606 13.2317 2.56522L12.9793 1.4169C12.7677 0.466062 11.7419 -0.148327 10.6836 0.0418413L5.57118 0.948797C4.65941 1.11702 4 1.83381 4 2.67494V14.0411C4 19.695 8.4856 24.4272 14.4284 25.5097C14.6401 32.1217 20.9818 37.4464 28.7481 37.4464C36.6447 37.4464 43.076 31.9316 43.076 25.1586V16.9229C44.6309 16.111 45.6811 14.6043 45.6811 12.8709C45.6811 10.2597 43.304 8.15324 40.3977 8.18981ZM40.4709 14.0411C39.7545 14.0411 39.1684 13.5145 39.1684 12.8709C39.1684 12.2272 39.7545 11.7006 40.4709 11.7006C41.1873 11.7006 41.7735 12.2272 41.7735 12.8709C41.7735 13.5145 41.1873 14.0411 40.4709 14.0411Z" fill="#A6A6A6"/>
</g>
<defs>
<filter id="filter0_d_80_396" x="0" y="0" width="49.6812" height="45.4465" filterUnits="userSpaceOnUse" color-interpolation-filters="sRGB">
<feFlood flood-opacity="0" result="BackgroundImageFix"/>
<feColorMatrix in="SourceAlpha" type="matrix" values="0 0 0 0 0 0 0 0 0 0 0 0 0 0 0 0 0 0 127 0" result="hardAlpha"/>
<feOffset dy="4"/>
<feGaussianBlur stdDeviation="2"/>
<feComposite in2="hardAlpha" operator="out"/>
<feColorMatrix type="matrix" values="0 0 0 0 0 0 0 0 0 0 0 0 0 0 0 0 0 0 0.25 0"/>
<feBlend mode="normal" in2="BackgroundImageFix" result="effect1_dropShadow_80_396"/>
<feBlend mode="normal" in="SourceGraphic" in2="effect1_dropShadow_80_396" result="shape"/>
</filter>
</defs>
</svg>
