<svg width="139" height="21" viewBox="0 0 139 21" fill="none" xmlns="http://www.w3.org/2000/svg">
<path d="M17.7921 1.84474L11.1146 19.8309C11.0228 20.0974 10.8277 20.3229 10.5294 20.5073C10.2541 20.6918 9.95576 20.784 9.63451 20.784H8.22328C7.90203 20.784 7.60372 20.6918 7.32836 20.5073C7.07594 20.3229 6.89237 20.0974 6.77763 19.8309L0.100131 1.84474C-0.0834428 1.3938 -0.0146025 0.973613 0.306652 0.584169C0.604962 0.194723 1.02948 0 1.5802 0H2.57839C3.33563 0 3.84046 0.317707 4.09287 0.953116L8.73958 13.6203C8.87726 13.7638 9.00347 13.7638 9.1182 13.6203C9.60009 12.288 10.0934 10.9249 10.5983 9.53114C11.126 8.11684 11.6194 6.79478 12.0783 5.56496C12.5373 4.31464 12.9159 3.27953 13.2142 2.45965L13.7649 0.953116C13.8797 0.666157 14.0747 0.440689 14.3501 0.276711C14.6484 0.0922373 14.9582 0 15.2794 0H16.2776C16.8283 0 17.2528 0.194723 17.5511 0.584169C17.8724 0.953116 17.9527 1.37331 17.7921 1.84474ZM26.9697 19.3697C26.9697 19.7592 26.809 20.0974 26.4878 20.3843C26.1895 20.6508 25.8223 20.784 25.3863 20.784H24.457C24.021 20.784 23.6424 20.6508 23.3211 20.3843C23.0228 20.0974 22.8737 19.7592 22.8737 19.3697V1.4143C22.8737 1.00436 23.0228 0.666157 23.3211 0.399695C23.6424 0.133231 24.021 0 24.457 0H25.3863C25.8223 0 26.1895 0.133231 26.4878 0.399695C26.809 0.666157 26.9697 1.00436 26.9697 1.4143V19.3697ZM47.3523 2.24443C47.3523 2.63388 47.2031 2.97208 46.9048 3.25904C46.6065 3.5255 46.2279 3.65873 45.769 3.65873H42.1549C41.8565 3.65873 41.7074 3.79196 41.7074 4.05842V19.3697C41.7074 19.7592 41.5468 20.0974 41.2255 20.3843C40.9272 20.6508 40.5601 20.784 40.1241 20.784H39.2291C38.7931 20.784 38.4145 20.6508 38.0933 20.3843C37.795 20.0974 37.6458 19.7592 37.6458 19.3697V4.05842C37.6458 3.79196 37.4967 3.65873 37.1983 3.65873H33.5498C33.1138 3.65873 32.7352 3.5255 32.4139 3.25904C32.1156 2.97208 31.9665 2.63388 31.9665 2.24443V1.4143C31.9665 1.00436 32.1156 0.666157 32.4139 0.399695C32.7352 0.133231 33.1138 0 33.5498 0H45.769C46.2279 0 46.6065 0.133231 46.9048 0.399695C47.2031 0.666157 47.3523 1.00436 47.3523 1.4143V2.24443ZM66.7222 18.9393C66.8599 19.4107 66.7796 19.8412 66.4813 20.2306C66.183 20.5996 65.7585 20.784 65.2078 20.784H64.2096C63.8883 20.784 63.5785 20.6918 63.2802 20.5073C63.0049 20.3229 62.8098 20.0974 62.6951 19.8309L61.3871 16.2952C61.2953 16.0287 61.1003 15.8955 60.802 15.8955H54.9164C54.6181 15.8955 54.4231 16.0287 54.3313 16.2952L53.0233 19.8309C52.9086 20.0974 52.7135 20.3229 52.4382 20.5073C52.1628 20.6918 51.853 20.784 51.5088 20.784H50.5106C49.9599 20.784 49.5354 20.5996 49.2371 20.2306C48.9158 19.8207 48.847 19.3902 49.0306 18.9393L55.7081 0.953116C55.8228 0.666157 56.0064 0.440689 56.2588 0.276711C56.5342 0.0922373 56.8325 0 57.1534 0H58.5647C58.8859 0 59.1842 0.0922373 59.4596 0.276711C59.7349 0.440689 59.9185 0.666157 60.0103 0.953116L66.7222 18.9393ZM59.7694 11.8678L58.0484 7.16373C57.9336 7.02025 57.8074 7.02025 57.6697 7.16373L55.949 11.8678C55.9031 11.9703 55.9146 12.0625 55.9834 12.1445C56.0523 12.2265 56.1441 12.2675 56.2588 12.2675H59.4596C59.5743 12.2675 59.6661 12.2265 59.7349 12.1445C59.8038 12.0625 59.8153 11.9703 59.7694 11.8678ZM86.7077 19.3697C86.7077 19.7592 86.5471 20.0974 86.2259 20.3843C85.9276 20.6508 85.5719 20.784 85.1588 20.784H73.3183C72.9053 20.784 72.5381 20.6508 72.2169 20.3843C71.9185 20.0974 71.7694 19.7592 71.7694 19.3697V1.4143C71.7694 1.00436 71.9185 0.666157 72.2169 0.399695C72.5381 0.133231 72.9053 0 73.3183 0H74.2821C74.7181 0 75.0852 0.133231 75.3835 0.399695C75.7048 0.666157 75.8654 1.00436 75.8654 1.4143V16.7564C75.8654 17.0228 76.0031 17.1561 76.2784 17.1561H85.1588C85.5719 17.1561 85.9276 17.2893 86.2259 17.5557C86.5471 17.8222 86.7077 18.1604 86.7077 18.5704V19.3697ZM95.8182 19.3697C95.8182 19.7592 95.6576 20.0974 95.3363 20.3843C95.038 20.6508 94.6708 20.784 94.2348 20.784H93.3055C92.8695 20.784 92.4909 20.6508 92.1696 20.3843C91.8713 20.0974 91.7222 19.7592 91.7222 19.3697V1.4143C91.7222 1.00436 91.8713 0.666157 92.1696 0.399695C92.4909 0.133231 92.8695 0 93.3055 0H94.2348C94.6708 0 95.038 0.133231 95.3363 0.399695C95.6576 0.666157 95.8182 1.00436 95.8182 1.4143V19.3697ZM116.201 2.24443C116.201 2.63388 116.052 2.97208 115.753 3.25904C115.455 3.5255 115.076 3.65873 114.617 3.65873H111.003C110.705 3.65873 110.556 3.79196 110.556 4.05842V19.3697C110.556 19.7592 110.395 20.0974 110.074 20.3843C109.776 20.6508 109.408 20.784 108.972 20.784H108.077C107.642 20.784 107.263 20.6508 106.942 20.3843C106.643 20.0974 106.494 19.7592 106.494 19.3697V4.05842C106.494 3.79196 106.345 3.65873 106.047 3.65873H102.398C101.962 3.65873 101.584 3.5255 101.262 3.25904C100.964 2.97208 100.815 2.63388 100.815 2.24443V1.4143C100.815 1.00436 100.964 0.666157 101.262 0.399695C101.584 0.133231 101.962 0 102.398 0H114.617C115.076 0 115.455 0.133231 115.753 0.399695C116.052 0.666157 116.201 1.00436 116.201 1.4143V2.24443ZM138.758 0.707151C139.034 1.17858 139.022 1.66026 138.724 2.15219L132.287 11.4989C132.196 11.6013 132.15 11.7756 132.15 12.0215V19.3697C132.15 19.7592 131.989 20.0974 131.668 20.3843C131.37 20.6508 131.002 20.784 130.566 20.784H129.603C129.167 20.784 128.788 20.6508 128.467 20.3843C128.169 20.0974 128.019 19.7592 128.019 19.3697V11.9908C128.019 11.7653 127.962 11.6013 127.847 11.4989L121.445 2.15219C121.147 1.63977 121.135 1.16834 121.411 0.737897C121.709 0.245965 122.168 0 122.788 0H123.889C124.509 0 124.967 0.225468 125.266 0.676405C125.518 1.02486 125.897 1.57828 126.402 2.33667C126.906 3.09506 127.469 3.92519 128.088 4.82706C128.708 5.70844 129.293 6.54882 129.844 7.3482C129.89 7.43019 129.958 7.47119 130.05 7.47119C130.165 7.47119 130.257 7.43019 130.326 7.3482C130.945 6.44633 131.553 5.56496 132.15 4.70408C132.746 3.82271 133.286 3.03357 133.768 2.33667C134.272 1.61927 134.651 1.06585 134.903 0.676405C135.202 0.225468 135.649 0 136.246 0H137.347C137.99 0 138.46 0.235717 138.758 0.707151Z" fill="#0B2676"/>
</svg>
