<svg width="53" height="40" viewBox="0 0 53 40" fill="none" xmlns="http://www.w3.org/2000/svg">
<g filter="url(#filter0_d_80_398)">
<path d="M46.3617 0.00384197C42.0803 0.223864 33.5708 1.02471 28.3176 3.93664C27.9551 4.13756 27.7496 4.49483 27.7496 4.86837V30.6109C27.7496 31.428 28.7364 31.9445 29.5684 31.5653C34.9732 29.1019 42.7897 28.4298 46.6546 28.2459C47.9742 28.1829 49 27.225 49 26.0768V2.17576C49.0008 0.92284 47.8008 -0.0697344 46.3617 0.00384197ZM24.6824 3.93664C19.43 1.02471 10.9204 0.224571 6.63911 0.00384197C5.20002 -0.0697344 4 0.92284 4 2.17576V26.0775C4 27.2264 5.0258 28.1843 6.34535 28.2466C10.2118 28.4305 18.0323 29.1033 23.4371 31.5681C24.2668 31.9466 25.2504 31.4309 25.2504 30.6159V4.85564C25.2504 4.48139 25.0457 4.13827 24.6824 3.93664Z" fill="#A6A6A6"/>
</g>
<defs>
<filter id="filter0_d_80_398" x="0" y="0" width="53" height="39.6946" filterUnits="userSpaceOnUse" color-interpolation-filters="sRGB">
<feFlood flood-opacity="0" result="BackgroundImageFix"/>
<feColorMatrix in="SourceAlpha" type="matrix" values="0 0 0 0 0 0 0 0 0 0 0 0 0 0 0 0 0 0 127 0" result="hardAlpha"/>
<feOffset dy="4"/>
<feGaussianBlur stdDeviation="2"/>
<feComposite in2="hardAlpha" operator="out"/>
<feColorMatrix type="matrix" values="0 0 0 0 0 0 0 0 0 0 0 0 0 0 0 0 0 0 0.25 0"/>
<feBlend mode="normal" in2="BackgroundImageFix" result="effect1_dropShadow_80_398"/>
<feBlend mode="normal" in="SourceGraphic" in2="effect1_dropShadow_80_398" result="shape"/>
</filter>
</defs>
</svg>
